<svg width="50" height="50" viewBox="0 0 50 50" fill="none" xmlns="http://www.w3.org/2000/svg">
<circle cx="25" cy="25" r="25" fill="#333333"/>
<g clip-path="url(#clip0)">
<path d="M35.8327 18.282C35.027 18.6354 34.1684 18.8697 33.2733 18.9834C34.1941 18.4336 34.897 17.5697 35.2274 16.5283C34.3688 17.0402 33.4209 17.4018 32.4107 17.6035C31.5955 16.7355 30.4336 16.1979 29.1661 16.1979C26.707 16.1979 24.7272 18.194 24.7272 20.6409C24.7272 20.993 24.757 21.3316 24.8301 21.6539C21.1373 21.4738 17.8697 19.7039 15.6746 17.0077C15.2913 17.6726 15.0665 18.4336 15.0665 19.2529C15.0665 20.7913 15.8587 22.1549 17.0396 22.9444C16.3259 22.9308 15.6258 22.7236 15.0327 22.3973C15.0327 22.4108 15.0327 22.4284 15.0327 22.446C15.0327 24.6046 16.5724 26.3975 18.5914 26.8105C18.2299 26.9094 17.8358 26.9568 17.4268 26.9568C17.1425 26.9568 16.8554 26.9405 16.5859 26.8809C17.1614 28.64 18.7946 29.9332 20.7364 29.9752C19.2252 31.1574 17.3063 31.8697 15.229 31.8697C14.8648 31.8697 14.5154 31.8534 14.166 31.8088C16.1336 33.0776 18.4655 33.8021 20.9802 33.8021C29.1539 33.8021 33.6227 27.0313 33.6227 21.1623C33.6227 20.9659 33.6159 20.7764 33.6064 20.5881C34.488 19.9625 35.2287 19.1811 35.8327 18.282Z" fill="white"/>
</g>
<defs>
<clipPath id="clip0">
<rect width="21.6667" height="21.6667" fill="white" transform="translate(14.166 14.1667)"/>
</clipPath>
</defs>
</svg>
