<svg width="50" height="50" viewBox="0 0 50 50" fill="none" xmlns="http://www.w3.org/2000/svg">
<circle cx="25" cy="25" r="25" fill="#333333"/>
<path d="M24.7862 26.3428C28.273 26.3428 31.0997 23.6171 31.0997 20.2547C31.0997 16.8923 28.2731 14.1667 24.7862 14.1667C21.2993 14.1667 18.4727 16.8924 18.4727 20.2547C18.4769 23.6153 21.3011 26.3386 24.7862 26.3428ZM24.7862 16.9765C26.6637 16.9765 28.1858 18.4442 28.1858 20.2547C28.1858 22.0653 26.6637 23.5329 24.7862 23.5329C22.9086 23.5329 21.3866 22.0653 21.3866 20.2547C21.3866 18.4442 22.9086 16.9765 24.7862 16.9765Z" fill="white"/>
<path d="M30.9693 29.2271C31.6555 28.7913 32.0689 28.0524 32.0698 27.2602C32.0794 26.6027 31.6946 25.9989 31.082 25.71C30.4526 25.4069 29.6992 25.4751 29.1394 25.8861C26.5449 27.71 23.026 27.71 20.4316 25.8861C19.8709 25.4773 19.1188 25.4091 18.4889 25.71C17.8766 25.9988 17.4916 26.602 17.5001 27.2592C17.5016 28.0513 17.9149 28.79 18.6007 29.2261C19.4805 29.7903 20.4386 30.2318 21.4466 30.5374C21.6176 30.5886 21.794 30.636 21.976 30.6798L19.0407 33.4475C18.2707 34.1679 18.2521 35.3538 18.9992 36.0964C19.7463 36.8389 20.9761 36.8568 21.7462 36.1364C21.7622 36.1214 21.7779 36.1062 21.7934 36.0906L24.7851 33.1046L27.7826 36.0962C28.529 36.8393 29.7589 36.8582 30.5295 36.1384C31.3001 35.4186 31.3197 34.2326 30.5732 33.4896C30.5576 33.474 30.5417 33.4587 30.5255 33.4437L27.5951 30.6788C27.777 30.6339 27.9541 30.5861 28.1264 30.5355C29.1333 30.2311 30.0905 29.7905 30.9693 29.2271Z" fill="white"/>
</svg>
