<svg width="50" height="50" viewBox="0 0 50 50" fill="none" xmlns="http://www.w3.org/2000/svg">
<circle cx="25" cy="25" r="25" fill="#333333"/>
<path d="M31.2907 14.1667H21.2091C17.7854 14.1667 15 16.9522 15 20.3759V30.4575C15 33.8813 17.7854 36.6667 21.2091 36.6667H31.2907C34.7146 36.6667 37.5 33.8812 37.5 30.4575V20.3759C37.5001 16.9522 34.7146 14.1667 31.2907 14.1667ZM35.5038 30.4575C35.5038 32.7805 33.6139 34.6704 31.2908 34.6704H21.2091C18.8861 34.6705 16.9963 32.7805 16.9963 30.4575V20.3759C16.9963 18.0529 18.8861 16.163 21.2091 16.163H31.2907C33.6137 16.163 35.5037 18.0529 35.5037 20.3759V30.4575H35.5038Z" fill="white"/>
<path d="M26.2508 19.6191C23.0539 19.6191 20.4531 22.2199 20.4531 25.4168C20.4531 28.6136 23.0539 31.2142 26.2508 31.2142C29.4477 31.2142 32.0485 28.6136 32.0485 25.4168C32.0485 22.2199 29.4477 19.6191 26.2508 19.6191ZM26.2508 29.2178C24.1548 29.2178 22.4494 27.5127 22.4494 25.4167C22.4494 23.3206 24.1547 21.6153 26.2508 21.6153C28.3469 21.6153 30.0522 23.3206 30.0522 25.4167C30.0522 27.5127 28.3468 29.2178 26.2508 29.2178Z" fill="white"/>
<path d="M32.2901 17.9264C31.9055 17.9264 31.5277 18.0821 31.256 18.355C30.9831 18.6265 30.8262 19.0044 30.8262 19.3904C30.8262 19.7751 30.9832 20.153 31.256 20.4258C31.5275 20.6973 31.9055 20.8544 32.2901 20.8544C32.6761 20.8544 33.0527 20.6973 33.3255 20.4258C33.5984 20.153 33.7541 19.775 33.7541 19.3904C33.7541 19.0044 33.5984 18.6265 33.3255 18.355C33.054 18.0821 32.6761 17.9264 32.2901 17.9264Z" fill="white"/>
</svg>
