<svg width="50" height="50" viewBox="0 0 50 50" fill="none" xmlns="http://www.w3.org/2000/svg">
<circle cx="25" cy="25" r="25" fill="#333333"/>
<path d="M25.7685 33.2776C25.7685 33.2776 26.2047 33.2307 26.4281 32.9987C26.6325 32.7861 26.6254 32.3848 26.6254 32.3848C26.6254 32.3848 26.5983 30.5113 27.4978 30.2347C28.3843 29.9626 29.5225 32.0465 30.7305 32.8478C31.643 33.4536 32.3357 33.321 32.3357 33.321L35.5637 33.2776C35.5637 33.2776 37.2516 33.177 36.4513 31.8933C36.3852 31.7882 35.9845 30.9434 34.0519 29.2082C32.0272 27.3918 32.299 27.6856 34.7363 24.5432C36.2209 22.6297 36.8142 21.4614 36.6286 20.9619C36.4525 20.4841 35.3604 20.611 35.3604 20.611L31.7269 20.6327C31.7269 20.6327 31.4574 20.5973 31.2577 20.7127C31.0626 20.8259 30.9362 21.0899 30.9362 21.0899C30.9362 21.0899 30.3617 22.5702 29.5946 23.8299C27.9765 26.4865 27.3299 26.6271 27.0651 26.4625C26.4493 26.0773 26.603 24.917 26.603 24.0928C26.603 21.5175 27.0072 20.4441 25.817 20.1663C25.4222 20.0737 25.1314 20.0131 24.1208 20.0029C22.8242 19.9903 21.7273 20.0074 21.1055 20.3012C20.6918 20.4967 20.3727 20.9333 20.5677 20.9585C20.8077 20.9893 21.3514 21.1002 21.6398 21.4797C22.0121 21.9701 21.9991 23.0698 21.9991 23.0698C21.9991 23.0698 22.2131 26.1013 21.4991 26.4773C21.0098 26.7357 20.3384 26.2087 18.8952 23.7979C18.1565 22.5634 17.5986 21.1985 17.5986 21.1985C17.5986 21.1985 17.491 20.9436 17.2983 20.8065C17.0655 20.6407 16.7404 20.5893 16.7404 20.5893L13.2878 20.611C13.2878 20.611 12.7689 20.6247 12.5786 20.843C12.4096 21.0362 12.5656 21.4374 12.5656 21.4374C12.5656 21.4374 15.2689 27.5541 18.3302 30.6371C21.1375 33.4628 24.3241 33.2776 24.3241 33.2776H25.7685Z" fill="white"/>
</svg>
